# xmcd
#
# Track frame offsets:
#	150
#	17054
#	37433
#	53176
#	77112
#	93762
#	119407
#	131779
#	151110
#	171229
#	193732
#	208069
#	225912
#	243051
#	262370
#	278979
#	296298
#	318036
#
# Disc length: 4441 seconds
#
# Revision: 0
# Processed by: cddbd v1.5.2PL0 Copyright (c) Steve Scherf et al.
# Submitted via: EasyCDDAExtractor 15.2.5.1
#
DISCID=fd115712
DTITLE=Roberto Bignoli - Collection 2006
DYEAR=2006
DGENRE=
TTITLE0=La c'è un posto
TTITLE1=Ti Voglio Seguire
TTITLE2=C'è Bisogno di Te
TTITLE3=Dimmi o Mio Signore
TTITLE4=Parole e Amore
TTITLE5=Le Lacrime di Dio
TTITLE6=Blues per Maria
TTITLE7=Blues Cielo Blu
TTITLE8=Ho Bisogno di Te
TTITLE9=Cosa c'è
TTITLE10=Oltre la Collina
TTITLE11=I Tempi Stanno Cambiando
TTITLE12=Ho visto la Croce
TTITLE13=Sai che ci Sarò
TTITLE14=Ti Seguirò
TTITLE15=Un Uomo
TTITLE16=Diglielo Tu
TTITLE17=Ballata per Maria
EXTD=
EXTT0=
EXTT1=
EXTT2=
EXTT3=
EXTT4=
EXTT5=
EXTT6=
EXTT7=
EXTT8=
EXTT9=
EXTT10=
EXTT11=
EXTT12=
EXTT13=
EXTT14=
EXTT15=
EXTT16=
EXTT17=
PLAYORDER=
